<svg width="43" height="41" viewBox="0 0 43 41" fill="none" xmlns="http://www.w3.org/2000/svg">
<path fill-rule="evenodd" clip-rule="evenodd" d="M23.8287 8.94266C22.4425 8.94266 21.0699 9.21493 19.7892 9.74393C18.5086 10.2729 17.3449 11.0483 16.3648 12.0257C15.3846 13.0032 14.6071 14.1636 14.0766 15.4407C13.7048 16.3358 13.4595 17.276 13.346 18.2342C13.2568 18.9873 12.8442 19.6828 12.1656 20.0212L10.1584 21.022C9.47979 21.3604 9.03456 22.0559 9.12376 22.809C9.23726 23.7673 9.48259 24.7074 9.85438 25.6025C10.3849 26.8796 11.1624 28.04 12.1425 29.0175C13.1227 29.9949 14.2864 30.7703 15.567 31.2993C16.8477 31.8283 18.2203 32.1006 19.6064 32.1006C20.9926 32.1006 22.3652 31.8283 23.6459 31.2993C24.9265 30.7703 26.0902 29.9949 27.0704 29.0175C28.0505 28.04 28.828 26.8796 29.3585 25.6025C29.7303 24.7074 29.9756 23.7673 30.0891 22.809C30.1783 22.0559 30.5909 21.3604 31.2696 21.022L33.2767 20.0212C33.9553 19.6828 34.4006 18.9873 34.3114 18.2342C34.1979 17.276 33.9525 16.3358 33.5807 15.4407C33.0503 14.1636 32.2727 13.0032 31.2926 12.0257C30.3124 11.0483 29.1488 10.2729 27.8681 9.74393C26.5874 9.21493 25.2148 8.94266 23.8287 8.94266ZM28.7047 17.4549C28.8111 17.711 28.8968 17.9745 28.9612 18.2428C29.1384 18.9802 28.6775 19.6828 27.9989 20.0212L25.9918 21.022C25.3131 21.3604 24.9161 22.063 24.739 22.8004C24.6745 23.0688 24.5889 23.3322 24.4825 23.5884C24.2172 24.2269 23.8285 24.8071 23.3384 25.2959C22.8483 25.7846 22.2665 26.1723 21.6262 26.4368C20.9858 26.7013 20.2995 26.8374 19.6064 26.8374C18.9134 26.8374 18.2271 26.7013 17.5867 26.4368C16.9464 26.1723 16.3646 25.7846 15.8745 25.2959C15.3844 24.8071 14.9956 24.2269 14.7304 23.5884C14.624 23.3322 14.5384 23.0688 14.4739 22.8004C14.2968 22.063 14.7576 21.3604 15.4362 21.022L17.4433 20.0212C18.122 19.6828 18.519 18.9802 18.6961 18.2428C18.7606 17.9745 18.8463 17.711 18.9526 17.4549C19.2179 16.8163 19.6066 16.2361 20.0967 15.7474C20.5868 15.2586 21.1686 14.871 21.8089 14.6065C22.4493 14.342 23.1356 14.2058 23.8287 14.2058C24.5218 14.2058 25.2081 14.342 25.8484 14.6065C26.4887 14.871 27.0705 15.2586 27.5606 15.7474C28.0507 16.2361 28.4395 16.8163 28.7047 17.4549Z" fill="#16A34A"></path>
<path fill-rule="evenodd" clip-rule="evenodd" d="M23.8287 0.521606C21.3336 0.521606 18.8629 1.01169 16.5577 1.96389C14.2525 2.91608 12.158 4.31174 10.3936 6.07116C8.62933 7.83059 7.2298 9.91933 6.27496 12.2181C5.47865 14.1352 5.00464 16.1672 4.86918 18.2322C4.81955 18.989 4.39977 19.6828 3.72111 20.0212L1.714 21.022C1.03534 21.3604 0.597326 22.0543 0.646962 22.811C0.782417 24.8761 1.25643 26.908 2.05273 28.8251C3.00757 31.1239 4.4071 33.2126 6.17142 34.9721C7.93573 36.7315 10.0303 38.1271 12.3355 39.0793C14.6406 40.0315 17.1113 40.5216 19.6064 40.5216C22.1016 40.5216 24.5722 40.0315 26.8774 39.0793C29.1826 38.1271 31.2772 36.7315 33.0415 34.9721C34.8058 33.2126 36.2053 31.1239 37.1602 28.8251C37.9565 26.908 38.4305 24.8761 38.5659 22.811C38.6156 22.0543 39.0353 21.3604 39.714 21.022L41.7211 20.0212C42.3998 19.6828 42.8378 18.989 42.7882 18.2322C42.6527 16.1672 42.1787 14.1352 41.3824 12.2181C40.4275 9.91933 39.028 7.83059 37.2637 6.07116C35.4994 4.31174 33.4048 2.91608 31.0997 1.96389C28.7945 1.01169 26.3238 0.521606 23.8287 0.521606ZM33.2726 22.8102C33.3413 22.0549 33.7576 21.3604 34.4362 21.022L36.4433 20.0212C37.122 19.6828 37.5635 18.9883 37.4948 18.2331C37.3699 16.8597 37.0373 15.5106 36.5064 14.2323C35.8167 12.572 34.806 11.0635 33.5317 9.79278C32.2575 8.52208 30.7448 7.51411 29.0799 6.82641C27.4151 6.13872 25.6307 5.78476 23.8287 5.78476C22.0266 5.78476 20.2423 6.13872 18.5774 6.82641C16.9125 7.51411 15.3998 8.52208 14.1256 9.79278C12.8514 11.0635 11.8406 12.572 11.151 14.2323C10.62 15.5106 10.2874 16.8597 10.1625 18.2331C10.0938 18.9883 9.67755 19.6828 8.99889 20.0212L6.99178 21.022C6.31312 21.3604 5.87162 22.0549 5.9403 22.8102C6.0652 24.1835 6.39777 25.5326 6.92876 26.811C7.61837 28.4712 8.62914 29.9797 9.90337 31.2504C11.1776 32.5211 12.6903 33.5291 14.3552 34.2168C16.02 34.9045 17.8044 35.2584 19.6064 35.2584C21.4085 35.2584 23.1929 34.9045 24.8577 34.2168C26.5226 33.5291 28.0353 32.5211 29.3095 31.2504C30.5838 29.9797 31.5945 28.4712 32.2841 26.811C32.8151 25.5326 33.1477 24.1835 33.2726 22.8102Z" fill="#16A34A"></path>
<path d="M42.8234 19.0401H37.5437C37.5414 19.3092 37.3834 19.5526 37.1408 19.6735L33.739 21.3697C33.4965 21.4906 33.3417 21.734 33.3227 22.0031H38.6023C38.619 21.7339 38.7743 21.4906 39.0168 21.3697L42.4186 19.6735C42.6611 19.5526 42.8187 19.3093 42.8234 19.0401Z" fill="#6CC58D"></path>
<path d="M0.612061 22.0031H5.89171C5.89403 21.734 6.05205 21.4906 6.29459 21.3697L9.6964 19.6735C9.93894 19.5526 10.0937 19.3092 10.1128 19.0401H4.83311C4.81639 19.3093 4.66115 19.5526 4.41862 19.6735L1.01681 21.3697C0.774281 21.4906 0.616707 21.7339 0.612061 22.0031Z" fill="#6CC58D"></path>
<path d="M13.2815 19.0401C13.2599 19.3092 13.1056 19.5526 12.8631 19.6735L9.46126 21.3697C9.2187 21.4906 9.06019 21.7341 9.0604 22.0031H14.347C14.3357 21.7346 14.4964 21.4907 14.739 21.3697L18.1408 19.6735C18.3835 19.5525 18.5358 19.3086 18.568 19.0401H13.2815Z" fill="#6CC58D"></path>
<path d="M29.0885 19.0401C29.0997 19.3086 28.9391 19.5525 28.6964 19.6735L25.2946 21.3697C25.0519 21.4907 24.8997 21.7346 24.8674 22.0031H30.154C30.1755 21.7341 30.3298 21.4906 30.5724 21.3697L33.9742 19.6735C34.2167 19.5526 34.3752 19.3092 34.375 19.0401H29.0885Z" fill="#6CC58D"></path>
</svg>